Coordinates
version=1
nRows=14
nColumns=24
inDegrees=yes

Units are S.I. units (second, meters, Newtons, ...)
Angles are in degrees.

endheader
time	pelvis_tilt	pelvis_list	pelvis_rotation	pelvis_tx	pelvis_ty	pelvis_tz	hip_flexion_r	hip_adduction_r	hip_rotation_r	knee_angle_r	ankle_angle_r	subtalar_angle_r	mtp_angle_r	hip_flexion_l	hip_adduction_l	hip_rotation_l	knee_angle_l	ankle_angle_l	subtalar_angle_l	mtp_angle_l	lumbar_extension	lumbar_bending	lumbar_rotation
      2.76000000	     92.22031254	     15.65901636	    -93.68640657	      0.35048684	      0.29181708	      1.01440836	      1.45881198	     -8.62059082	     -7.74838669	    -14.20099307	    -37.92888370	     -1.74545602	    -25.17324631	    -13.19438290	    -17.47474651	    -12.16941450	    -60.69910954	    -23.00578430	     -0.14557499	     73.45799169	      0.00000000	      0.00000000	      0.00000000
      2.77000000	     92.21865100	     15.67487893	    -93.69314066	      0.35094439	      0.29183758	      1.01446893	      0.86002269	     -8.88460906	     -8.44450324	    -15.36336477	    -37.37727872	     -1.74545602	    -25.17324631	    -13.05795773	    -17.37690563	    -11.95059158	    -60.92854713	    -22.97642861	     -0.14557499	     73.45799169	      0.00000000	      0.00000000	      0.00000000
      2.78000000	     92.21819879	     15.72315760	    -93.67225421	      0.35127814	      0.29192822	      1.01444175	      0.20681940	     -9.12525577	     -8.85275318	    -16.52719940	    -36.95738823	     -1.74545602	    -25.17324631	    -12.88024276	    -17.30700700	    -11.71763404	    -61.16074174	    -22.95092673	     -0.14557499	     73.45799169	      0.00000000	      0.00000000	      0.00000000
      2.79000000	     92.23253220	     15.81120331	    -93.62446114	      0.35147842	      0.29210986	      1.01430923	     -0.47566469	     -9.35097183	     -8.95351531	    -17.69785129	    -36.75316468	     -1.74545602	    -25.17324631	    -12.68352348	    -17.26916978	    -11.51605870	    -61.34277706	    -22.93226344	     -0.14557499	     73.45799169	      0.00000000	      0.00000000	      0.00000000
      2.80000000	     92.26335965	     15.94319719	    -93.55983003	      0.35164926	      0.29230154	      1.01418688	     -1.16246463	     -9.55981263	     -8.75102365	    -18.88493644	    -36.86199007	     -1.74545602	    -25.17324631	    -12.47901432	    -17.25598105	    -11.37039568	    -61.44767052	    -22.92311882	     -0.14557499	     73.45799169	      0.00000000	      0.00000000	      0.00000000
      2.81000000	     92.30550454	     16.12335017	    -93.49319835	      0.35185537	      0.29243487	      1.01418089	     -1.82965605	     -9.74199053	     -8.26805694	    -20.09431846	    -37.37502341	     -1.74545602	    -25.17324631	    -12.26741138	    -17.25481448	    -11.27985230	    -61.47575845	    -22.92458625	     -0.14557499	     73.45799169	      0.00000000	      0.00000000	      0.00000000
      2.82000000	     92.35374213	     16.35622129	    -93.43702803	      0.35210426	      0.29251055	      1.01430966	     -2.45318669	     -9.88560815	     -7.54237267	    -21.32257268	    -38.35253546	     -1.74545602	    -25.17324631	    -12.04185945	    -17.25302121	    -11.22484904	    -61.44530988	    -22.93522591	     -0.14557499	     73.45799169	      0.00000000	      0.00000000	      0.00000000
      2.83000000	     92.40612102	     16.64416498	    -93.39715181	      0.35240047	      0.29256789	      1.01454229	     -3.00888911	     -9.98241514	     -6.62448613	    -22.55665380	    -39.79998987	     -1.74545602	    -25.17324631	    -11.79082902	    -17.23979228	    -11.17848489	    -61.37977164	    -22.95096363	     -0.14557499	     73.45799169	      0.00000000	      0.00000000	      0.00000000
      2.84000000	     92.46353705	     16.98565887	    -93.37314854	      0.35275152	      0.29263774	      1.01483638	     -3.47516586	    -10.03206843	     -5.57498459	    -23.77848028	    -41.65160465	     -1.74545602	    -25.17324631	    -11.50176049	    -17.20661460	    -11.11644378	    -61.29822492	    -22.96596344	     -0.14557499	     73.45799169	      0.00000000	      0.00000000	      0.00000000
      2.85000000	     92.52869451	     17.37523047	    -93.36092814	      0.35314714	      0.29273110	      1.01515248	     -3.83614447	    -10.04290106	     -4.46032689	    -24.97096924	    -43.76744863	     -1.74545602	    -25.17324631	    -11.16565312	    -17.14762999	    -11.02231918	    -61.21176652	    -22.97419368	     -0.14557499	     73.45799169	      0.00000000	      0.00000000	      0.00000000
      2.86000000	     92.60550994	     17.80396276	    -93.35487878	      0.35356274	      0.29285401	      1.01548042	     -4.08326745	    -10.02965247	     -3.34741896	    -26.12218993	    -45.94803694	     -1.74545602	    -25.17324631	    -10.78084992	    -17.05999898	    -10.88868789	    -61.12476793	    -22.97108709	     -0.14557499	     73.45799169	      0.00000000	      0.00000000	      0.00000000
      2.87000000	     92.69744446	     18.26024224	    -93.34911918	      0.35397311	      0.29301757	      1.01583956	     -4.21529220	    -10.01088125	     -2.29819747	    -27.22657370	    -47.96616904	     -1.74545602	    -25.17324631	    -10.35435132	    -16.94414907	    -10.71577125	    -61.03835398	    -22.95462128	     -0.14557499	     73.45799169	      0.00000000	      0.00000000	      0.00000000
      2.88000000	     92.80502451	     18.73044451	    -93.33863918	      0.35436240	      0.29323142	      1.01623600	     -4.23671906	    -10.00689234	     -1.36573942	    -28.28371392	    -49.60967965	     -1.74545602	    -25.17324631	     -9.90068422	    -16.80386352	    -10.50946199	    -60.95381157	    -22.92544239	     -0.14557499	     73.45799169	      0.00000000	      0.00000000	      0.00000000
      2.89000000	     92.92479853	     19.19882080	    -93.32081375	      0.35473285	      0.29349310	      1.01664804	     -4.15427242	    -10.03658868	     -0.59261784	    -29.29572611	    -50.72340983	     -1.74545602	    -25.17324631	     -9.43939644	    -16.64596761	    -10.27974038	    -60.87469254	    -22.88617696	     -0.14557499	     73.45799169	      0.00000000	      0.00000000	      0.00000000
